  0
SECTION
  2
HEADER
  9
$ACADVER
  1
AC1009
  9
$DWGCODEPAGE
  3
ansi_1252
  9
$INSBASE
 10
0.0
 20
0.0
 30
0.0
  9
$EXTMIN
 10
3.272278921777656
 20
4.842116502907137
 30
0.0
  9
$EXTMAX
 10
4.124007182680991
 20
5.694017181414091
 30
0.0
  9
$LIMMIN
 10
0.0
 20
0.0
  9
$LIMMAX
 10
12.0
 20
9.0
  9
$ORTHOMODE
 70
     0
  9
$REGENMODE
 70
     1
  9
$FILLMODE
 70
     1
  9
$QTEXTMODE
 70
     0
  9
$MIRRTEXT
 70
     1
  9
$DRAGMODE
 70
     2
  9
$LTSCALE
 40
1.0
  9
$OSMODE
 70
    37
  9
$ATTMODE
 70
     1
  9
$TEXTSIZE
 40
0.2
  9
$TRACEWID
 40
0.05
  9
$TEXTSTYLE
  7
STANDARD
  9
$CLAYER
  8
0
  9
$CELTYPE
  6
BYLAYER
  9
$CECOLOR
 62
   256
  9
$DIMSCALE
 40
1.0
  9
$DIMASZ
 40
0.18
  9
$DIMEXO
 40
0.0625
  9
$DIMDLI
 40
0.38
  9
$DIMRND
 40
0.0
  9
$DIMDLE
 40
0.0
  9
$DIMEXE
 40
0.18
  9
$DIMTP
 40
0.0
  9
$DIMTM
 40
0.0
  9
$DIMTXT
 40
0.18
  9
$DIMCEN
 40
0.09
  9
$DIMTSZ
 40
0.0
  9
$DIMTOL
 70
     0
  9
$DIMLIM
 70
     0
  9
$DIMTIH
 70
     1
  9
$DIMTOH
 70
     1
  9
$DIMSE1
 70
     0
  9
$DIMSE2
 70
     0
  9
$DIMTAD
 70
     0
  9
$DIMZIN
 70
     0
  9
$DIMBLK
  1

  9
$DIMASO
 70
     1
  9
$DIMSHO
 70
     1
  9
$DIMPOST
  1

  9
$DIMAPOST
  1

  9
$DIMALT
 70
     0
  9
$DIMALTD
 70
     2
  9
$DIMALTF
 40
25.4
  9
$DIMLFAC
 40
1.0
  9
$DIMTOFL
 70
     0
  9
$DIMTVP
 40
0.0
  9
$DIMTIX
 70
     0
  9
$DIMSOXD
 70
     0
  9
$DIMSAH
 70
     0
  9
$DIMBLK1
  1

  9
$DIMBLK2
  1

  9
$DIMSTYLE
  2
STANDARD
  9
$DIMCLRD
 70
     0
  9
$DIMCLRE
 70
     0
  9
$DIMCLRT
 70
     0
  9
$DIMTFAC
 40
1.0
  9
$DIMGAP
 40
0.09
  9
$LUNITS
 70
     2
  9
$LUPREC
 70
     4
  9
$SKETCHINC
 40
0.1
  9
$FILLETRAD
 40
0.0
  9
$AUNITS
 70
     0
  9
$AUPREC
 70
     0
  9
$MENU
  1
.
  9
$ELEVATION
 40
0.0
  9
$PELEVATION
 40
0.0
  9
$THICKNESS
 40
0.0
  9
$LIMCHECK
 70
     0
  9
$CHAMFERA
 40
0.0
  9
$CHAMFERB
 40
0.0
  9
$SKPOLY
 70
     0
  9
$TDCREATE
 40
2454910.5
  9
$TDUPDATE
 40
2460006.863034387
  9
$TDINDWG
 40
0.0000000116
  9
$TDUSRTIMER
 40
0.0000000116
  9
$USRTIMER
 70
     1
  9
$ANGBASE
 50
0.0
  9
$ANGDIR
 70
     0
  9
$PDMODE
 70
     0
  9
$PDSIZE
 40
0.0
  9
$PLINEWID
 40
0.0
  9
$COORDS
 70
     1
  9
$SPLFRAME
 70
     0
  9
$SPLINETYPE
 70
     6
  9
$SPLINESEGS
 70
     8
  9
$ATTDIA
 70
     0
  9
$ATTREQ
 70
     1
  9
$HANDLING
 70
     1
  9
$HANDSEED
  5
1DB
  9
$SURFTAB1
 70
     6
  9
$SURFTAB2
 70
     6
  9
$SURFTYPE
 70
     6
  9
$SURFU
 70
     6
  9
$SURFV
 70
     6
  9
$UCSNAME
  2

  9
$UCSORG
 10
0.0
 20
0.0
 30
0.0
  9
$UCSXDIR
 10
1.0
 20
0.0
 30
0.0
  9
$UCSYDIR
 10
0.0
 20
1.0
 30
0.0
  9
$PUCSNAME
  2

  9
$PUCSORG
 10
0.0
 20
0.0
 30
0.0
  9
$PUCSXDIR
 10
1.0
 20
0.0
 30
0.0
  9
$PUCSYDIR
 10
0.0
 20
1.0
 30
0.0
  9
$USERI1
 70
     0
  9
$USERI2
 70
     0
  9
$USERI3
 70
     0
  9
$USERI4
 70
     0
  9
$USERI5
 70
     0
  9
$USERR1
 40
0.0
  9
$USERR2
 40
0.0
  9
$USERR3
 40
0.0
  9
$USERR4
 40
0.0
  9
$USERR5
 40
0.0
  9
$WORLDVIEW
 70
     1
  9
$SHADEDGE
 70
     3
  9
$SHADEDIF
 70
    70
  9
$TILEMODE
 70
     1
  9
$MAXACTVP
 70
    64
  9
$PLIMCHECK
 70
     0
  9
$PEXTMIN
 10
1.000000000000000E+20
 20
1.000000000000000E+20
 30
1.000000000000000E+20
  9
$PEXTMAX
 10
-1.000000000000000E+20
 20
-1.000000000000000E+20
 30
-1.000000000000000E+20
  9
$PLIMMIN
 10
0.0
 20
0.0
  9
$PLIMMAX
 10
12.0
 20
9.0
  9
$UNITMODE
 70
     0
  9
$VISRETAIN
 70
     1
  9
$PLINEGEN
 70
     0
  9
$PSLTSCALE
 70
     1
  0
ENDSEC
  0
SECTION
  2
TABLES
  0
TABLE
  2
VPORT
 70
     1
  0
VPORT
  2
*ACTIVE
 70
     0
 10
0.0
 20
0.0
 11
1.0
 21
1.0
 12
10.42990654205607
 22
4.5
 13
0.0
 23
0.0
 14
0.5
 24
0.5
 15
0.5
 25
0.5
 16
0.0
 26
0.0
 36
1.0
 17
0.0
 27
0.0
 37
0.0
 40
9.0
 41
1.972972972850329
 42
50.0
 43
0.0
 44
0.0
 50
0.0
 51
0.0
 71
     0
 72
   100
 73
     1
 74
     3
 75
     0
 76
     0
 77
     0
 78
     0
  0
ENDTAB
  0
TABLE
  2
LTYPE
 70
     2
  0
LTYPE
  2
CONTINUOUS
 70
     0
  3
Solid line
 72
    65
 73
     0
 40
0.0
  0
LTYPE
  2
CONTINUOUS2
 70
     0
  3
Solid Line
 72
    65
 73
     0
 40
0.0
  0
ENDTAB
  0
TABLE
  2
LAYER
 70
     2
  0
LAYER
  2
0
 70
     0
 62
     7
  6
CONTINUOUS
  0
LAYER
  2
IMPORT_-_LOGO_EPS
 70
     0
 62
     7
  6
CONTINUOUS
  0
ENDTAB
  0
TABLE
  2
STYLE
 70
     1
  0
STYLE
  2
STANDARD
 70
     0
 40
0.0
 41
1.0
 50
0.0
 71
     0
 42
0.2
  3
txt
  4

  0
ENDTAB
  0
TABLE
  2
VIEW
 70
     0
  0
ENDTAB
  0
TABLE
  2
UCS
 70
     0
  0
ENDTAB
  0
TABLE
  2
APPID
 70
     1
  0
APPID
  2
ACAD
 70
     0
  0
ENDTAB
  0
TABLE
  2
DIMSTYLE
 70
     1
  0
DIMSTYLE
  2
STANDARD
 70
     0
  3

  4

  5

  6

  7

 40
1.0
 41
0.18
 42
0.0625
 43
0.38
 44
0.18
 45
0.0
 46
0.0
 47
0.0
 48
0.0
140
0.18
141
0.09
142
0.0
143
25.4
144
1.0
145
0.0
146
1.0
147
0.09
 71
     0
 72
     0
 73
     1
 74
     1
 75
     0
 76
     0
 77
     0
 78
     0
170
     0
171
     2
172
     0
173
     0
174
     0
175
     0
176
     0
177
     0
178
     0
  0
ENDTAB
  0
ENDSEC
  0
SECTION
  2
BLOCKS
  0
BLOCK
  8
0
  2
$MODEL_SPACE
 70
     0
 10
0.0
 20
0.0
 30
0.0
  3
$MODEL_SPACE
  1

  0
ENDBLK
  5
21
  8
0
  0
BLOCK
 67
     1
  8
0
  2
$PAPER_SPACE
 70
     0
 10
0.0
 20
0.0
 30
0.0
  3
$PAPER_SPACE
  1

  0
ENDBLK
  5
1D
 67
     1
  8
0
  0
ENDSEC
  0
SECTION
  2
ENTITIES
  0
POLYLINE
  5
60
  8
IMPORT_-_LOGO_EPS
 66
     1
 10
0.0
 20
0.0
 30
0.0
 70
     1
  0
VERTEX
  5
6A
  8
IMPORT_-_LOGO_EPS
 10
3.666360107487615
 20
4.843169087933918
 30
0.0
  0
VERTEX
  5
6B
  8
IMPORT_-_LOGO_EPS
 10
3.651739466721134
 20
4.844551543650596
 30
0.0
  0
VERTEX
  5
6C
  8
IMPORT_-_LOGO_EPS
 10
3.637076463761019
 20
4.84648907401828
 30
0.0
  0
VERTEX
  5
6D
  8
IMPORT_-_LOGO_EPS
 10
3.622403725076626
 20
4.848969571912191
 30
0.0
  0
VERTEX
  5
6E
  8
IMPORT_-_LOGO_EPS
 10
3.607753877137309
 20
4.851980930207544
 30
0.0
  0
VERTEX
  5
6F
  8
IMPORT_-_LOGO_EPS
 10
3.593159546412423
 20
4.855511041779559
 30
0.0
  0
VERTEX
  5
70
  8
IMPORT_-_LOGO_EPS
 10
3.578653359371324
 20
4.859547799503456
 30
0.0
  0
VERTEX
  5
71
  8
IMPORT_-_LOGO_EPS
 10
3.564267942483367
 20
4.86407909625445
 30
0.0
  0
VERTEX
  5
72
  8
IMPORT_-_LOGO_EPS
 10
3.550035922217905
 20
4.86909282490776
 30
0.0
  0
VERTEX
  5
73
  8
IMPORT_-_LOGO_EPS
 10
3.535989925044295
 20
4.874576878338606
 30
0.0
  0
VERTEX
  5
74
  8
IMPORT_-_LOGO_EPS
 10
3.522162577431892
 20
4.880519149422204
 30
0.0
  0
VERTEX
  5
75
  8
IMPORT_-_LOGO_EPS
 10
3.50858650585005
 20
4.886907531033773
 30
0.0
  0
VERTEX
  5
76
  8
IMPORT_-_LOGO_EPS
 10
3.495294336768125
 20
4.893729916048532
 30
0.0
  0
VERTEX
  5
77
  8
IMPORT_-_LOGO_EPS
 10
3.482318696655471
 20
4.900974197341697
 30
0.0
  0
VERTEX
  5
78
  8
IMPORT_-_LOGO_EPS
 10
3.469692211981445
 20
4.908628267788488
 30
0.0
  0
VERTEX
  5
79
  8
IMPORT_-_LOGO_EPS
 10
3.4574475092154
 20
4.916680020264125
 30
0.0
  0
VERTEX
  5
7A
  8
IMPORT_-_LOGO_EPS
 10
3.445617214826691
 20
4.925117347643823
 30
0.0
  0
VERTEX
  5
7B
  8
IMPORT_-_LOGO_EPS
 10
3.432264172642315
 20
4.935225727776437
 30
0.0
  0
VERTEX
  5
7C
  8
IMPORT_-_LOGO_EPS
 10
3.421753093856637
 20
4.943810334952353
 30
0.0
  0
VERTEX
  5
7D
  8
IMPORT_-_LOGO_EPS
 10
3.411424470251887
 20
4.953160252418374
 30
0.0
  0
VERTEX
  5
7E
  8
IMPORT_-_LOGO_EPS
 10
3.398618793610296
 20
4.965564563421304
 30
0.0
  0
VERTEX
  5
7F
  8
IMPORT_-_LOGO_EPS
 10
3.384181830955531
 20
4.980501386956541
 30
0.0
  0
VERTEX
  5
80
  8
IMPORT_-_LOGO_EPS
 10
3.370547562272136
 20
4.996082863315456
 30
0.0
  0
VERTEX
  5
81
  8
IMPORT_-_LOGO_EPS
 10
3.357730859442394
 20
5.012274059276792
 30
0.0
  0
VERTEX
  5
82
  8
IMPORT_-_LOGO_EPS
 10
3.345746594348591
 20
5.029040041619291
 30
0.0
  0
VERTEX
  5
83
  8
IMPORT_-_LOGO_EPS
 10
3.33460963887301
 20
5.046345877121697
 30
0.0
  0
VERTEX
  5
84
  8
IMPORT_-_LOGO_EPS
 10
3.324334864897937
 20
5.064156632562752
 30
0.0
  0
VERTEX
  5
85
  8
IMPORT_-_LOGO_EPS
 10
3.314937144305655
 20
5.082437374721199
 30
0.0
  0
VERTEX
  5
86
  8
IMPORT_-_LOGO_EPS
 10
3.306431348978448
 20
5.101153170375781
 30
0.0
  0
VERTEX
  5
87
  8
IMPORT_-_LOGO_EPS
 10
3.298832350798602
 20
5.120269086305241
 30
0.0
  0
VERTEX
  5
88
  8
IMPORT_-_LOGO_EPS
 10
3.292155021648401
 20
5.139750189288321
 30
0.0
  0
VERTEX
  5
89
  8
IMPORT_-_LOGO_EPS
 10
3.286414233410128
 20
5.159561546103765
 30
0.0
  0
VERTEX
  5
8A
  8
IMPORT_-_LOGO_EPS
 10
3.281624857966069
 20
5.179668223530316
 30
0.0
  0
VERTEX
  5
8B
  8
IMPORT_-_LOGO_EPS
 10
3.277801767198508
 20
5.200035288346715
 30
0.0
  0
VERTEX
  5
8C
  8
IMPORT_-_LOGO_EPS
 10
3.274959832989729
 20
5.220627807331706
 30
0.0
  0
VERTEX
  5
8D
  8
IMPORT_-_LOGO_EPS
 10
3.273113927222017
 20
5.241410847264031
 30
0.0
  0
VERTEX
  5
8E
  8
IMPORT_-_LOGO_EPS
 10
3.272278921777656
 20
5.262349474922433
 30
0.0
  0
VERTEX
  5
8F
  8
IMPORT_-_LOGO_EPS
 10
3.272322689523692
 20
5.277151434794208
 30
0.0
  0
VERTEX
  5
90
  8
IMPORT_-_LOGO_EPS
 10
3.272905297601805
 20
5.29196444665459
 30
0.0
  0
VERTEX
  5
91
  8
IMPORT_-_LOGO_EPS
 10
3.274021925540877
 20
5.30677089569123
 30
0.0
  0
VERTEX
  5
92
  8
IMPORT_-_LOGO_EPS
 10
3.275667752869788
 20
5.321553167091778
 30
0.0
  0
VERTEX
  5
93
  8
IMPORT_-_LOGO_EPS
 10
3.277837959117419
 20
5.336293646043885
 30
0.0
  0
VERTEX
  5
94
  8
IMPORT_-_LOGO_EPS
 10
3.280527723812651
 20
5.350974717735201
 30
0.0
  0
VERTEX
  5
95
  8
IMPORT_-_LOGO_EPS
 10
3.283732226484365
 20
5.365578767353375
 30
0.0
  0
VERTEX
  5
96
  8
IMPORT_-_LOGO_EPS
 10
3.287446646661443
 20
5.380088180086059
 30
0.0
  0
VERTEX
  5
97
  8
IMPORT_-_LOGO_EPS
 10
3.291666163872764
 20
5.394485341120902
 30
0.0
  0
VERTEX
  5
98
  8
IMPORT_-_LOGO_EPS
 10
3.296385957647211
 20
5.408752635645553
 30
0.0
  0
VERTEX
  5
99
  8
IMPORT_-_LOGO_EPS
 10
3.301601207513664
 20
5.422872448847663
 30
0.0
  0
VERTEX
  5
9A
  8
IMPORT_-_LOGO_EPS
 10
3.307307093001004
 20
5.436827165914884
 30
0.0
  0
VERTEX
  5
9B
  8
IMPORT_-_LOGO_EPS
 10
3.313498793638113
 20
5.450599172034864
 30
0.0
  0
VERTEX
  5
9C
  8
IMPORT_-_LOGO_EPS
 10
3.32017148895387
 20
5.464170852395254
 30
0.0
  0
VERTEX
  5
9D
  8
IMPORT_-_LOGO_EPS
 10
3.327320358477158
 20
5.477524592183704
 30
0.0
  0
VERTEX
  5
9E
  8
IMPORT_-_LOGO_EPS
 10
3.334940581736856
 20
5.490642776587863
 30
0.0
  0
VERTEX
  5
9F
  8
IMPORT_-_LOGO_EPS
 10
3.342188571400943
 20
5.502188874199338
 30
0.0
  0
VERTEX
  5
A0
  8
IMPORT_-_LOGO_EPS
 10
3.349804541737027
 20
5.513458740006229
 30
0.0
  0
VERTEX
  5
A1
  8
IMPORT_-_LOGO_EPS
 10
3.357778038828885
 20
5.524446509140859
 30
0.0
  0
VERTEX
  5
A2
  8
IMPORT_-_LOGO_EPS
 10
3.366098608760296
 20
5.535146316735554
 30
0.0
  0
VERTEX
  5
A3
  8
IMPORT_-_LOGO_EPS
 10
3.374755797615035
 20
5.545552297922641
 30
0.0
  0
VERTEX
  5
A4
  8
IMPORT_-_LOGO_EPS
 10
3.383739151476882
 20
5.555658587834444
 30
0.0
  0
VERTEX
  5
A5
  8
IMPORT_-_LOGO_EPS
 10
3.393038216429613
 20
5.565459321603287
 30
0.0
  0
VERTEX
  5
A6
  8
IMPORT_-_LOGO_EPS
 10
3.402642538557006
 20
5.574948634361496
 30
0.0
  0
VERTEX
  5
A7
  8
IMPORT_-_LOGO_EPS
 10
3.412541663942838
 20
5.584120661241397
 30
0.0
  0
VERTEX
  5
A8
  8
IMPORT_-_LOGO_EPS
 10
3.422725138670886
 20
5.592969537375314
 30
0.0
  0
VERTEX
  5
A9
  8
IMPORT_-_LOGO_EPS
 10
3.433182508824927
 20
5.601489397895574
 30
0.0
  0
VERTEX
  5
AA
  8
IMPORT_-_LOGO_EPS
 10
3.44390332048874
 20
5.609674377934502
 30
0.0
  0
VERTEX
  5
AB
  8
IMPORT_-_LOGO_EPS
 10
3.454877119746102
 20
5.617518612624422
 30
0.0
  0
VERTEX
  5
AC
  8
IMPORT_-_LOGO_EPS
 10
3.466093452680789
 20
5.625016237097659
 30
0.0
  0
VERTEX
  5
AD
  8
IMPORT_-_LOGO_EPS
 10
3.47754186537658
 20
5.632161386486541
 30
0.0
  0
VERTEX
  5
AE
  8
IMPORT_-_LOGO_EPS
 10
3.48921190391725
 20
5.63894819592339
 30
0.0
  0
VERTEX
  5
AF
  8
IMPORT_-_LOGO_EPS
 10
3.501093114386579
 20
5.645370800540533
 30
0.0
  0
VERTEX
  5
B0
  8
IMPORT_-_LOGO_EPS
 10
3.513175042868344
 20
5.651423335470295
 30
0.0
  0
VERTEX
  5
B1
  8
IMPORT_-_LOGO_EPS
 10
3.525447235446321
 20
5.657099935845
 30
0.0
  0
VERTEX
  5
B2
  8
IMPORT_-_LOGO_EPS
 10
3.537899238204289
 20
5.662394736796976
 30
0.0
  0
VERTEX
  5
B3
  8
IMPORT_-_LOGO_EPS
 10
3.550520597226024
 20
5.667301873458547
 30
0.0
  0
VERTEX
  5
B4
  8
IMPORT_-_LOGO_EPS
 10
3.563300858595303
 20
5.671815480962037
 30
0.0
  0
VERTEX
  5
B5
  8
IMPORT_-_LOGO_EPS
 10
3.576229568395905
 20
5.675929694439771
 30
0.0
  0
VERTEX
  5
B6
  8
IMPORT_-_LOGO_EPS
 10
3.589296272711606
 20
5.679638649024078
 30
0.0
  0
VERTEX
  5
B7
  8
IMPORT_-_LOGO_EPS
 10
3.602490517626184
 20
5.68293647984728
 30
0.0
  0
VERTEX
  5
B8
  8
IMPORT_-_LOGO_EPS
 10
3.615801849223417
 20
5.685817322041702
 30
0.0
  0
VERTEX
  5
B9
  8
IMPORT_-_LOGO_EPS
 10
3.629219813587082
 20
5.688275310739671
 30
0.0
  0
VERTEX
  5
BA
  8
IMPORT_-_LOGO_EPS
 10
3.642733956800956
 20
5.69030458107351
 30
0.0
  0
VERTEX
  5
BB
  8
IMPORT_-_LOGO_EPS
 10
3.656333824948815
 20
5.691899268175549
 30
0.0
  0
VERTEX
  5
BC
  8
IMPORT_-_LOGO_EPS
 10
3.670008964114439
 20
5.693053507178107
 30
0.0
  0
VERTEX
  5
BD
  8
IMPORT_-_LOGO_EPS
 10
3.683748920381604
 20
5.693761433213512
 30
0.0
  0
VERTEX
  5
BE
  8
IMPORT_-_LOGO_EPS
 10
3.697543239834087
 20
5.694017181414091
 30
0.0
  0
VERTEX
  5
BF
  8
IMPORT_-_LOGO_EPS
 10
3.718086890711487
 20
5.693549456862662
 30
0.0
  0
VERTEX
  5
C0
  8
IMPORT_-_LOGO_EPS
 10
3.738547182550942
 20
5.692070918113822
 30
0.0
  0
VERTEX
  5
C1
  8
IMPORT_-_LOGO_EPS
 10
3.758883670677895
 20
5.689597941105777
 30
0.0
  0
VERTEX
  5
C2
  8
IMPORT_-_LOGO_EPS
 10
3.779055910417788
 20
5.686146901776736
 30
0.0
  0
VERTEX
  5
C3
  8
IMPORT_-_LOGO_EPS
 10
3.799023457096065
 20
5.681734176064904
 30
0.0
  0
VERTEX
  5
C4
  8
IMPORT_-_LOGO_EPS
 10
3.818745866038169
 20
5.676376139908489
 30
0.0
  0
VERTEX
  5
C5
  8
IMPORT_-_LOGO_EPS
 10
3.838182692569543
 20
5.670089169245697
 30
0.0
  0
VERTEX
  5
C6
  8
IMPORT_-_LOGO_EPS
 10
3.85729349201563
 20
5.662889640014734
 30
0.0
  0
VERTEX
  5
C7
  8
IMPORT_-_LOGO_EPS
 10
3.876037819701874
 20
5.654793928153808
 30
0.0
  0
VERTEX
  5
C8
  8
IMPORT_-_LOGO_EPS
 10
3.894375230953717
 20
5.645818409601126
 30
0.0
  0
VERTEX
  5
C9
  8
IMPORT_-_LOGO_EPS
 10
3.912265281096601
 20
5.635979460294894
 30
0.0
  0
VERTEX
  5
CA
  8
IMPORT_-_LOGO_EPS
 10
3.929667525455971
 20
5.625293456173318
 30
0.0
  0
VERTEX
  5
CB
  8
IMPORT_-_LOGO_EPS
 10
3.946541519357269
 20
5.613776773174607
 30
0.0
  0
VERTEX
  5
CC
  8
IMPORT_-_LOGO_EPS
 10
3.962846818125939
 20
5.601445787236965
 30
0.0
  0
VERTEX
  5
CD
  8
IMPORT_-_LOGO_EPS
 10
3.978542977087424
 20
5.5883168742986
 30
0.0
  0
VERTEX
  5
CE
  8
IMPORT_-_LOGO_EPS
 10
3.993589551567165
 20
5.574406410297721
 30
0.0
  0
VERTEX
  5
CF
  8
IMPORT_-_LOGO_EPS
 10
4.007352845327512
 20
5.560439078613948
 30
0.0
  0
VERTEX
  5
D0
  8
IMPORT_-_LOGO_EPS
 10
4.02038426029012
 20
5.546011592504867
 30
0.0
  0
VERTEX
  5
D1
  8
IMPORT_-_LOGO_EPS
 10
4.032677528044101
 20
5.531137106214459
 30
0.0
  0
VERTEX
  5
D2
  8
IMPORT_-_LOGO_EPS
 10
4.044226380178568
 20
5.515828773986708
 30
0.0
  0
VERTEX
  5
D3
  8
IMPORT_-_LOGO_EPS
 10
4.055024548282633
 20
5.500099750065598
 30
0.0
  0
VERTEX
  5
D4
  8
IMPORT_-_LOGO_EPS
 10
4.065065763945409
 20
5.483963188695109
 30
0.0
  0
VERTEX
  5
D5
  8
IMPORT_-_LOGO_EPS
 10
4.074343758756008
 20
5.467432244119225
 30
0.0
  0
VERTEX
  5
D6
  8
IMPORT_-_LOGO_EPS
 10
4.082852264303543
 20
5.450520070581929
 30
0.0
  0
VERTEX
  5
D7
  8
IMPORT_-_LOGO_EPS
 10
4.090585012177127
 20
5.433239822327203
 30
0.0
  0
VERTEX
  5
D8
  8
IMPORT_-_LOGO_EPS
 10
4.097535733965871
 20
5.415604653599031
 30
0.0
  0
VERTEX
  5
D9
  8
IMPORT_-_LOGO_EPS
 10
4.103698161258889
 20
5.397627718641396
 30
0.0
  0
VERTEX
  5
DA
  8
IMPORT_-_LOGO_EPS
 10
4.109066025645293
 20
5.37932217169828
 30
0.0
  0
VERTEX
  5
DB
  8
IMPORT_-_LOGO_EPS
 10
4.113633058714196
 20
5.360701167013665
 30
0.0
  0
VERTEX
  5
DC
  8
IMPORT_-_LOGO_EPS
 10
4.11739299205471
 20
5.341777858831534
 30
0.0
  0
VERTEX
  5
DD
  8
IMPORT_-_LOGO_EPS
 10
4.120339557255948
 20
5.32256540139587
 30
0.0
  0
VERTEX
  5
DE
  8
IMPORT_-_LOGO_EPS
 10
4.122466485907021
 20
5.303076948950658
 30
0.0
  0
VERTEX
  5
DF
  8
IMPORT_-_LOGO_EPS
 10
4.123344452577103
 20
5.290921616852621
 30
0.0
  0
VERTEX
  5
E0
  8
IMPORT_-_LOGO_EPS
 10
4.123856950124786
 20
5.278763959438019
 30
0.0
  0
VERTEX
  5
E1
  8
IMPORT_-_LOGO_EPS
 10
4.124007182680991
 20
5.266612139362714
 30
0.0
  0
VERTEX
  5
E2
  8
IMPORT_-_LOGO_EPS
 10
4.123798354376646
 20
5.254474319282566
 30
0.0
  0
VERTEX
  5
E3
  8
IMPORT_-_LOGO_EPS
 10
4.123233669342673
 20
5.242358661853435
 30
0.0
  0
VERTEX
  5
E4
  8
IMPORT_-_LOGO_EPS
 10
4.122316331709996
 20
5.230273329731183
 30
0.0
  0
VERTEX
  5
E5
  8
IMPORT_-_LOGO_EPS
 10
4.12104954560954
 20
5.218226485571673
 30
0.0
  0
VERTEX
  5
E6
  8
IMPORT_-_LOGO_EPS
 10
4.119436515172229
 20
5.206226292030762
 30
0.0
  0
VERTEX
  5
E7
  8
IMPORT_-_LOGO_EPS
 10
4.117480444528987
 20
5.194280911764313
 30
0.0
  0
VERTEX
  5
E8
  8
IMPORT_-_LOGO_EPS
 10
4.115184537810737
 20
5.182398507428188
 30
0.0
  0
VERTEX
  5
E9
  8
IMPORT_-_LOGO_EPS
 10
4.112551999148405
 20
5.170587241678247
 30
0.0
  0
VERTEX
  5
EA
  8
IMPORT_-_LOGO_EPS
 10
4.109586032672913
 20
5.158855277170349
 30
0.0
  0
VERTEX
  5
EB
  8
IMPORT_-_LOGO_EPS
 10
4.106289842515189
 20
5.147210776560358
 30
0.0
  0
VERTEX
  5
EC
  8
IMPORT_-_LOGO_EPS
 10
4.102666632806153
 20
5.135661902504133
 30
0.0
  0
VERTEX
  5
ED
  8
IMPORT_-_LOGO_EPS
 10
4.098719607676731
 20
5.124216817657537
 30
0.0
  0
VERTEX
  5
EE
  8
IMPORT_-_LOGO_EPS
 10
4.094451971257848
 20
5.112883684676429
 30
0.0
  0
VERTEX
  5
EF
  8
IMPORT_-_LOGO_EPS
 10
4.089866927680426
 20
5.101670666216672
 30
0.0
  0
VERTEX
  5
F0
  8
IMPORT_-_LOGO_EPS
 10
4.084967681075393
 20
5.090585924934125
 30
0.0
  0
VERTEX
  5
F1
  8
IMPORT_-_LOGO_EPS
 10
4.07975743557367
 20
5.07963762348465
 30
0.0
  0
VERTEX
  5
F2
  8
IMPORT_-_LOGO_EPS
 10
4.074239395306181
 20
5.068833924524107
 30
0.0
  0
VERTEX
  5
F3
  8
IMPORT_-_LOGO_EPS
 10
4.068416764403851
 20
5.058182990708357
 30
0.0
  0
VERTEX
  5
F4
  8
IMPORT_-_LOGO_EPS
 10
4.062292746997605
 20
5.047692984693263
 30
0.0
  0
VERTEX
  5
F5
  8
IMPORT_-_LOGO_EPS
 10
4.055870547218367
 20
5.037372069134684
 30
0.0
  0
VERTEX
  5
F6
  8
IMPORT_-_LOGO_EPS
 10
4.049153369197059
 20
5.027228406688482
 30
0.0
  0
VERTEX
  5
F7
  8
IMPORT_-_LOGO_EPS
 10
4.042144417064607
 20
5.017270160010518
 30
0.0
  0
VERTEX
  5
F8
  8
IMPORT_-_LOGO_EPS
 10
4.034846894951936
 20
5.007505491756651
 30
0.0
  0
VERTEX
  5
F9
  8
IMPORT_-_LOGO_EPS
 10
4.027264006989968
 20
4.997942564582745
 30
0.0
  0
VERTEX
  5
FA
  8
IMPORT_-_LOGO_EPS
 10
4.01939895730963
 20
4.98858954114466
 30
0.0
  0
VERTEX
  5
FB
  8
IMPORT_-_LOGO_EPS
 10
4.011254950041844
 20
4.979454584098256
 30
0.0
  0
VERTEX
  5
FC
  8
IMPORT_-_LOGO_EPS
 10
4.002835189317533
 20
4.970545856099394
 30
0.0
  0
VERTEX
  5
FD
  8
IMPORT_-_LOGO_EPS
 10
3.994142879267624
 20
4.961871519803936
 30
0.0
  0
VERTEX
  5
FE
  8
IMPORT_-_LOGO_EPS
 10
3.98518122402304
 20
4.953439737867742
 30
0.0
  0
VERTEX
  5
FF
  8
IMPORT_-_LOGO_EPS
 10
3.968779294592472
 20
4.939239089133457
 30
0.0
  0
VERTEX
  5
100
  8
IMPORT_-_LOGO_EPS
 10
3.951662623775195
 20
4.925928169143064
 30
0.0
  0
VERTEX
  5
101
  8
IMPORT_-_LOGO_EPS
 10
3.933883673572564
 20
4.913525142683256
 30
0.0
  0
VERTEX
  5
102
  8
IMPORT_-_LOGO_EPS
 10
3.915494905985935
 20
4.902048174540726
 30
0.0
  0
VERTEX
  5
103
  8
IMPORT_-_LOGO_EPS
 10
3.896548783016662
 20
4.891515429502165
 30
0.0
  0
VERTEX
  5
104
  8
IMPORT_-_LOGO_EPS
 10
3.8770977666661
 20
4.881945072354267
 30
0.0
  0
VERTEX
  5
105
  8
IMPORT_-_LOGO_EPS
 10
3.857194318935603
 20
4.873355267883722
 30
0.0
  0
VERTEX
  5
106
  8
IMPORT_-_LOGO_EPS
 10
3.836890901826527
 20
4.865764180877223
 30
0.0
  0
VERTEX
  5
107
  8
IMPORT_-_LOGO_EPS
 10
3.816239977340225
 20
4.859189976121462
 30
0.0
  0
VERTEX
  5
108
  8
IMPORT_-_LOGO_EPS
 10
3.795294007478053
 20
4.85365081840313
 30
0.0
  0
VERTEX
  5
109
  8
IMPORT_-_LOGO_EPS
 10
3.774105454241367
 20
4.84916487250892
 30
0.0
  0
VERTEX
  5
10A
  8
IMPORT_-_LOGO_EPS
 10
3.752726779631519
 20
4.845750303225524
 30
0.0
  0
VERTEX
  5
10B
  8
IMPORT_-_LOGO_EPS
 10
3.731210445649865
 20
4.843425275339634
 30
0.0
  0
VERTEX
  5
10C
  8
IMPORT_-_LOGO_EPS
 10
3.70960891429776
 20
4.84220795363794
 30
0.0
  0
VERTEX
  5
10D
  8
IMPORT_-_LOGO_EPS
 10
3.687974647576558
 20
4.842116502907137
 30
0.0
  0
SEQEND
  5
1D8
  8
IMPORT_-_LOGO_EPS
  0
POLYLINE
  5
61
  8
IMPORT_-_LOGO_EPS
 66
     1
 10
0.0
 20
0.0
 30
0.0
 70
     1
  0
VERTEX
  5
10E
  8
IMPORT_-_LOGO_EPS
 10
3.755841065857626
 20
4.898339033470266
 30
0.0
  0
VERTEX
  5
10F
  8
IMPORT_-_LOGO_EPS
 10
3.770053779804343
 20
4.900885397540105
 30
0.0
  0
VERTEX
  5
110
  8
IMPORT_-_LOGO_EPS
 10
3.784112768001792
 20
4.903960953840796
 30
0.0
  0
VERTEX
  5
111
  8
IMPORT_-_LOGO_EPS
 10
3.798004762159851
 20
4.907559081657682
 30
0.0
  0
VERTEX
  5
112
  8
IMPORT_-_LOGO_EPS
 10
3.811716493988397
 20
4.911673160276099
 30
0.0
  0
VERTEX
  5
113
  8
IMPORT_-_LOGO_EPS
 10
3.825234695197306
 20
4.916296568981388
 30
0.0
  0
VERTEX
  5
114
  8
IMPORT_-_LOGO_EPS
 10
3.838546097496454
 20
4.921422687058891
 30
0.0
  0
VERTEX
  5
115
  8
IMPORT_-_LOGO_EPS
 10
3.85163743259572
 20
4.927044893793948
 30
0.0
  0
VERTEX
  5
116
  8
IMPORT_-_LOGO_EPS
 10
3.86449543220498
 20
4.933156568471898
 30
0.0
  0
VERTEX
  5
117
  8
IMPORT_-_LOGO_EPS
 10
3.877106828034111
 20
4.939751090378083
 30
0.0
  0
VERTEX
  5
118
  8
IMPORT_-_LOGO_EPS
 10
3.88945835179299
 20
4.94682183879784
 30
0.0
  0
VERTEX
  5
119
  8
IMPORT_-_LOGO_EPS
 10
3.901536735191494
 20
4.954362193016511
 30
0.0
  0
VERTEX
  5
11A
  8
IMPORT_-_LOGO_EPS
 10
3.913328709939498
 20
4.962365532319437
 30
0.0
  0
VERTEX
  5
11B
  8
IMPORT_-_LOGO_EPS
 10
3.924821007746882
 20
4.970825235991955
 30
0.0
  0
VERTEX
  5
11C
  8
IMPORT_-_LOGO_EPS
 10
3.936000360323522
 20
4.979734683319409
 30
0.0
  0
VERTEX
  5
11D
  8
IMPORT_-_LOGO_EPS
 10
3.946853499379294
 20
4.989087253587138
 30
0.0
  0
VERTEX
  5
11E
  8
IMPORT_-_LOGO_EPS
 10
3.957367156624075
 20
4.99887632608048
 30
0.0
  0
VERTEX
  5
11F
  8
IMPORT_-_LOGO_EPS
 10
3.973121858073325
 20
5.014830927902234
 30
0.0
  0
VERTEX
  5
120
  8
IMPORT_-_LOGO_EPS
 10
3.985528773089333
 20
5.028538906403845
 30
0.0
  0
VERTEX
  5
121
  8
IMPORT_-_LOGO_EPS
 10
3.995540148329461
 20
5.040655081346468
 30
0.0
  0
VERTEX
  5
122
  8
IMPORT_-_LOGO_EPS
 10
3.990644233979238
 20
5.043183495832129
 30
0.0
  0
VERTEX
  5
123
  8
IMPORT_-_LOGO_EPS
 10
3.972265828747589
 20
5.051270176426622
 30
0.0
  0
VERTEX
  5
124
  8
IMPORT_-_LOGO_EPS
 10
3.944935996696566
 20
5.062802169978063
 30
0.0
  0
VERTEX
  5
125
  8
IMPORT_-_LOGO_EPS
 10
3.905125155986803
 20
5.079279992899164
 30
0.0
  0
VERTEX
  5
126
  8
IMPORT_-_LOGO_EPS
 10
3.890424068162111
 20
5.085509010045552
 30
0.0
  0
VERTEX
  5
127
  8
IMPORT_-_LOGO_EPS
 10
3.87607982347634
 20
5.092185117386695
 30
0.0
  0
VERTEX
  5
128
  8
IMPORT_-_LOGO_EPS
 10
3.862019596307646
 20
5.099350366050401
 30
0.0
  0
VERTEX
  5
129
  8
IMPORT_-_LOGO_EPS
 10
3.848170561034181
 20
5.107046807164481
 30
0.0
  0
VERTEX
  5
12A
  8
IMPORT_-_LOGO_EPS
 10
3.834459892034097
 20
5.115316491856746
 30
0.0
  0
VERTEX
  5
12B
  8
IMPORT_-_LOGO_EPS
 10
3.82081476368555
 20
5.124201471255002
 30
0.0
  0
VERTEX
  5
12C
  8
IMPORT_-_LOGO_EPS
 10
3.807162350366692
 20
5.13374379648706
 30
0.0
  0
VERTEX
  5
12D
  8
IMPORT_-_LOGO_EPS
 10
3.793429826455675
 20
5.143985518680732
 30
0.0
  0
VERTEX
  5
12E
  8
IMPORT_-_LOGO_EPS
 10
3.774495725441722
 20
5.159032521217862
 30
0.0
  0
VERTEX
  5
12F
  8
IMPORT_-_LOGO_EPS
 10
3.757062637872562
 20
5.17389414580793
 30
0.0
  0
VERTEX
  5
130
  8
IMPORT_-_LOGO_EPS
 10
3.741241137525811
 20
5.188454269107539
 30
0.0
  0
VERTEX
  5
131
  8
IMPORT_-_LOGO_EPS
 10
3.727141798179084
 20
5.202596767773292
 30
0.0
  0
VERTEX
  5
132
  8
IMPORT_-_LOGO_EPS
 10
3.714875193609997
 20
5.216205518461791
 30
0.0
  0
VERTEX
  5
133
  8
IMPORT_-_LOGO_EPS
 10
3.704551897596166
 20
5.229164397829639
 30
0.0
  0
VERTEX
  5
134
  8
IMPORT_-_LOGO_EPS
 10
3.700153544602976
 20
5.235363847223507
 30
0.0
  0
VERTEX
  5
135
  8
IMPORT_-_LOGO_EPS
 10
3.696282483915207
 20
5.241357282533438
 30
0.0
  0
VERTEX
  5
136
  8
IMPORT_-_LOGO_EPS
 10
3.69295253725506
 20
5.247130188341508
 30
0.0
  0
VERTEX
  5
137
  8
IMPORT_-_LOGO_EPS
 10
3.690177526344736
 20
5.252668049229791
 30
0.0
  0
VERTEX
  5
138
  8
IMPORT_-_LOGO_EPS
 10
3.687993398691115
 20
5.258098375669288
 30
0.0
  0
VERTEX
  5
139
  8
IMPORT_-_LOGO_EPS
 10
3.6856574340166
 20
5.265138254464514
 30
0.0
  0
VERTEX
  5
13A
  8
IMPORT_-_LOGO_EPS
 10
3.680854487840137
 20
5.282721526963439
 30
0.0
  0
VERTEX
  5
13B
  8
IMPORT_-_LOGO_EPS
 10
3.676417676285844
 20
5.302767582409142
 30
0.0
  0
VERTEX
  5
13C
  8
IMPORT_-_LOGO_EPS
 10
3.672995987824215
 20
5.322626136484205
 30
0.0
  0
VERTEX
  5
13D
  8
IMPORT_-_LOGO_EPS
 10
3.669280064139941
 20
5.353067501211385
 30
0.0
  0
VERTEX
  5
13E
  8
IMPORT_-_LOGO_EPS
 10
3.665305532554595
 20
5.392643671830744
 30
0.0
  0
VERTEX
  5
13F
  8
IMPORT_-_LOGO_EPS
 10
3.661656822004378
 20
5.435057721355959
 30
0.0
  0
VERTEX
  5
140
  8
IMPORT_-_LOGO_EPS
 10
3.658918361425494
 20
5.474012722800703
 30
0.0
  0
VERTEX
  5
141
  8
IMPORT_-_LOGO_EPS
 10
3.657817148596239
 20
5.492636593260748
 30
0.0
  0
VERTEX
  5
142
  8
IMPORT_-_LOGO_EPS
 10
3.67063702256623
 20
5.477355637050774
 30
0.0
  0
VERTEX
  5
143
  8
IMPORT_-_LOGO_EPS
 10
3.679965599834028
 20
5.46652981184331
 30
0.0
  0
VERTEX
  5
144
  8
IMPORT_-_LOGO_EPS
 10
3.689309151423165
 20
5.456276319495638
 30
0.0
  0
VERTEX
  5
145
  8
IMPORT_-_LOGO_EPS
 10
3.698676847293902
 20
5.446588809254489
 30
0.0
  0
VERTEX
  5
146
  8
IMPORT_-_LOGO_EPS
 10
3.708077857406504
 20
5.437460930366596
 30
0.0
  0
VERTEX
  5
147
  8
IMPORT_-_LOGO_EPS
 10
3.717521351721232
 20
5.428886332078688
 30
0.0
  0
VERTEX
  5
148
  8
IMPORT_-_LOGO_EPS
 10
3.72701650019835
 20
5.4208586636375
 30
0.0
  0
VERTEX
  5
149
  8
IMPORT_-_LOGO_EPS
 10
3.736572472798121
 20
5.413371574289757
 30
0.0
  0
VERTEX
  5
14A
  8
IMPORT_-_LOGO_EPS
 10
3.746198439480808
 20
5.406418713282195
 30
0.0
  0
VERTEX
  5
14B
  8
IMPORT_-_LOGO_EPS
 10
3.755903570206673
 20
5.399993729861542
 30
0.0
  0
VERTEX
  5
14C
  8
IMPORT_-_LOGO_EPS
 10
3.76569703493598
 20
5.394090273274532
 30
0.0
  0
VERTEX
  5
14D
  8
IMPORT_-_LOGO_EPS
 10
3.775588003628991
 20
5.388701992767895
 30
0.0
  0
VERTEX
  5
14E
  8
IMPORT_-_LOGO_EPS
 10
3.78558564624597
 20
5.383822537588361
 30
0.0
  0
VERTEX
  5
14F
  8
IMPORT_-_LOGO_EPS
 10
3.795699132747179
 20
5.379445556982661
 30
0.0
  0
VERTEX
  5
150
  8
IMPORT_-_LOGO_EPS
 10
3.805937633092882
 20
5.375564700197529
 30
0.0
  0
VERTEX
  5
151
  8
IMPORT_-_LOGO_EPS
 10
3.816310317243341
 20
5.372173616479694
 30
0.0
  0
VERTEX
  5
152
  8
IMPORT_-_LOGO_EPS
 10
3.826826355158819
 20
5.369265955075887
 30
0.0
  0
VERTEX
  5
153
  8
IMPORT_-_LOGO_EPS
 10
3.83808587874116
 20
5.366751579318914
 30
0.0
  0
VERTEX
  5
154
  8
IMPORT_-_LOGO_EPS
 10
3.852959148045803
 20
5.363905578942548
 30
0.0
  0
VERTEX
  5
155
  8
IMPORT_-_LOGO_EPS
 10
3.889776374512616
 20
5.35779826108468
 30
0.0
  0
VERTEX
  5
156
  8
IMPORT_-_LOGO_EPS
 10
3.929736935940495
 20
5.352103115008344
 30
0.0
  0
VERTEX
  5
157
  8
IMPORT_-_LOGO_EPS
 10
3.948539373946471
 20
5.349772329358894
 30
0.0
  0
VERTEX
  5
158
  8
IMPORT_-_LOGO_EPS
 10
3.965299733710679
 20
5.347979254219601
 30
0.0
  0
VERTEX
  5
159
  8
IMPORT_-_LOGO_EPS
 10
4.019663884988477
 20
5.342099225156775
 30
0.0
  0
VERTEX
  5
15A
  8
IMPORT_-_LOGO_EPS
 10
4.051402777657626
 20
5.338843463326103
 30
0.0
  0
VERTEX
  5
15B
  8
IMPORT_-_LOGO_EPS
 10
4.061245898929299
 20
5.338042452175948
 30
0.0
  0
VERTEX
  5
15C
  8
IMPORT_-_LOGO_EPS
 10
4.065083171979337
 20
5.337974275791392
 30
0.0
  0
VERTEX
  5
15D
  8
IMPORT_-_LOGO_EPS
 10
4.065150590192532
 20
5.339909009345694
 30
0.0
  0
VERTEX
  5
15E
  8
IMPORT_-_LOGO_EPS
 10
4.064401986084076
 20
5.344320125545565
 30
0.0
  0
VERTEX
  5
15F
  8
IMPORT_-_LOGO_EPS
 10
4.061007143310297
 20
5.358478726095695
 30
0.0
  0
VERTEX
  5
160
  8
IMPORT_-_LOGO_EPS
 10
4.055999508474169
 20
5.376264517869155
 30
0.0
  0
VERTEX
  5
161
  8
IMPORT_-_LOGO_EPS
 10
4.050479946391864
 20
5.393491941293315
 30
0.0
  0
VERTEX
  5
162
  8
IMPORT_-_LOGO_EPS
 10
4.047120367260804
 20
5.402464422321644
 30
0.0
  0
VERTEX
  5
163
  8
IMPORT_-_LOGO_EPS
 10
4.042979973390669
 20
5.412398627796694
 30
0.0
  0
VERTEX
  5
164
  8
IMPORT_-_LOGO_EPS
 10
4.033052056038185
 20
5.433745293068089
 30
0.0
  0
VERTEX
  5
165
  8
IMPORT_-_LOGO_EPS
 10
4.022086823544428
 20
5.45471809906976
 30
0.0
  0
VERTEX
  5
166
  8
IMPORT_-_LOGO_EPS
 10
4.016649785747703
 20
5.464184980457656
 30
0.0
  0
VERTEX
  5
167
  8
IMPORT_-_LOGO_EPS
 10
4.011474905119417
 20
5.472503207763967
 30
0.0
  0
VERTEX
  5
168
  8
IMPORT_-_LOGO_EPS
 10
4.001400652440601
 20
5.487137229304991
 30
0.0
  0
VERTEX
  5
169
  8
IMPORT_-_LOGO_EPS
 10
3.990688342825035
 20
5.501218655202582
 30
0.0
  0
VERTEX
  5
16A
  8
IMPORT_-_LOGO_EPS
 10
3.979360519635871
 20
5.514731572597329
 30
0.0
  0
VERTEX
  5
16B
  8
IMPORT_-_LOGO_EPS
 10
3.967439726236266
 20
5.527660068629819
 30
0.0
  0
VERTEX
  5
16C
  8
IMPORT_-_LOGO_EPS
 10
3.954948505989375
 20
5.539988230440638
 30
0.0
  0
VERTEX
  5
16D
  8
IMPORT_-_LOGO_EPS
 10
3.941909402258351
 20
5.551700145170376
 30
0.0
  0
VERTEX
  5
16E
  8
IMPORT_-_LOGO_EPS
 10
3.928344958406349
 20
5.562779899959613
 30
0.0
  0
VERTEX
  5
16F
  8
IMPORT_-_LOGO_EPS
 10
3.914277717796526
 20
5.573211581948942
 30
0.0
  0
VERTEX
  5
170
  8
IMPORT_-_LOGO_EPS
 10
3.899730223792034
 20
5.582979278278948
 30
0.0
  0
VERTEX
  5
171
  8
IMPORT_-_LOGO_EPS
 10
3.884725019756028
 20
5.592067076090217
 30
0.0
  0
VERTEX
  5
172
  8
IMPORT_-_LOGO_EPS
 10
3.869284649051665
 20
5.600459062523337
 30
0.0
  0
VERTEX
  5
173
  8
IMPORT_-_LOGO_EPS
 10
3.853431655042098
 20
5.608139324718895
 30
0.0
  0
VERTEX
  5
174
  8
IMPORT_-_LOGO_EPS
 10
3.837188581090482
 20
5.615091949817476
 30
0.0
  0
VERTEX
  5
175
  8
IMPORT_-_LOGO_EPS
 10
3.820577970559971
 20
5.621301024959669
 30
0.0
  0
VERTEX
  5
176
  8
IMPORT_-_LOGO_EPS
 10
3.803622366813721
 20
5.626750637286059
 30
0.0
  0
VERTEX
  5
177
  8
IMPORT_-_LOGO_EPS
 10
3.786344313214888
 20
5.631424873937235
 30
0.0
  0
VERTEX
  5
178
  8
IMPORT_-_LOGO_EPS
 10
3.764084244621466
 20
5.636454275127395
 30
0.0
  0
VERTEX
  5
179
  8
IMPORT_-_LOGO_EPS
 10
3.754444253200853
 20
5.638148156957106
 30
0.0
  0
VERTEX
  5
17A
  8
IMPORT_-_LOGO_EPS
 10
3.744976080811297
 20
5.639382764832669
 30
0.0
  0
VERTEX
  5
17B
  8
IMPORT_-_LOGO_EPS
 10
3.735063570288041
 20
5.640224052671154
 30
0.0
  0
VERTEX
  5
17C
  8
IMPORT_-_LOGO_EPS
 10
3.724090564466327
 20
5.640737974389636
 30
0.0
  0
VERTEX
  5
17D
  8
IMPORT_-_LOGO_EPS
 10
3.696498438268502
 20
5.641047535134881
 30
0.0
  0
VERTEX
  5
17E
  8
IMPORT_-_LOGO_EPS
 10
3.669642634217385
 20
5.64070822341399
 30
0.0
  0
VERTEX
  5
17F
  8
IMPORT_-_LOGO_EPS
 10
3.659159296139813
 20
5.640201135077412
 30
0.0
  0
VERTEX
  5
180
  8
IMPORT_-_LOGO_EPS
 10
3.649744115086244
 20
5.639369275182661
 30
0.0
  0
VERTEX
  5
181
  8
IMPORT_-_LOGO_EPS
 10
3.640725926850689
 20
5.63813778129917
 30
0.0
  0
VERTEX
  5
182
  8
IMPORT_-_LOGO_EPS
 10
3.631433567227158
 20
5.636431790996378
 30
0.0
  0
VERTEX
  5
183
  8
IMPORT_-_LOGO_EPS
 10
3.609341676992205
 20
5.631296871410626
 30
0.0
  0
VERTEX
  5
184
  8
IMPORT_-_LOGO_EPS
 10
3.598038136462892
 20
5.628302166454795
 30
0.0
  0
VERTEX
  5
185
  8
IMPORT_-_LOGO_EPS
 10
3.586907898147071
 20
5.625010901139796
 30
0.0
  0
VERTEX
  5
186
  8
IMPORT_-_LOGO_EPS
 10
3.575953208447834
 20
5.621424234085084
 30
0.0
  0
VERTEX
  5
187
  8
IMPORT_-_LOGO_EPS
 10
3.565176313768276
 20
5.617543323910109
 30
0.0
  0
VERTEX
  5
188
  8
IMPORT_-_LOGO_EPS
 10
3.554579460511489
 20
5.613369329234324
 30
0.0
  0
VERTEX
  5
189
  8
IMPORT_-_LOGO_EPS
 10
3.544164895080566
 20
5.60890340867718
 30
0.0
  0
VERTEX
  5
18A
  8
IMPORT_-_LOGO_EPS
 10
3.533934863878599
 20
5.604146720858129
 30
0.0
  0
VERTEX
  5
18B
  8
IMPORT_-_LOGO_EPS
 10
3.523891613308684
 20
5.599100424396621
 30
0.0
  0
VERTEX
  5
18C
  8
IMPORT_-_LOGO_EPS
 10
3.514037389773912
 20
5.59376567791211
 30
0.0
  0
VERTEX
  5
18D
  8
IMPORT_-_LOGO_EPS
 10
3.504374439677377
 20
5.588143640024048
 30
0.0
  0
VERTEX
  5
18E
  8
IMPORT_-_LOGO_EPS
 10
3.494905009422172
 20
5.582235469351884
 30
0.0
  0
VERTEX
  5
18F
  8
IMPORT_-_LOGO_EPS
 10
3.485631345411389
 20
5.576042324515073
 30
0.0
  0
VERTEX
  5
190
  8
IMPORT_-_LOGO_EPS
 10
3.476555694048122
 20
5.569565364133064
 30
0.0
  0
VERTEX
  5
191
  8
IMPORT_-_LOGO_EPS
 10
3.467680301735464
 20
5.562805746825312
 30
0.0
  0
VERTEX
  5
192
  8
IMPORT_-_LOGO_EPS
 10
3.459007414876509
 20
5.555764631211266
 30
0.0
  0
VERTEX
  5
193
  8
IMPORT_-_LOGO_EPS
 10
3.450539279874349
 20
5.548443175910379
 30
0.0
  0
VERTEX
  5
194
  8
IMPORT_-_LOGO_EPS
 10
3.438500836731501
 20
5.537273685670758
 30
0.0
  0
VERTEX
  5
195
  8
IMPORT_-_LOGO_EPS
 10
3.427070391532528
 20
5.525780614972989
 30
0.0
  0
VERTEX
  5
196
  8
IMPORT_-_LOGO_EPS
 10
3.416242993302162
 20
5.513955004276549
 30
0.0
  0
VERTEX
  5
197
  8
IMPORT_-_LOGO_EPS
 10
3.406013691065137
 20
5.501787894040918
 30
0.0
  0
VERTEX
  5
198
  8
IMPORT_-_LOGO_EPS
 10
3.396377533846186
 20
5.489270324725573
 30
0.0
  0
VERTEX
  5
199
  8
IMPORT_-_LOGO_EPS
 10
3.387329570670042
 20
5.476393336789993
 30
0.0
  0
VERTEX
  5
19A
  8
IMPORT_-_LOGO_EPS
 10
3.378864850561438
 20
5.463147970693656
 30
0.0
  0
VERTEX
  5
19B
  8
IMPORT_-_LOGO_EPS
 10
3.370978422545107
 20
5.44952526689604
 30
0.0
  0
VERTEX
  5
19C
  8
IMPORT_-_LOGO_EPS
 10
3.363665335645784
 20
5.435516265856624
 30
0.0
  0
VERTEX
  5
19D
  8
IMPORT_-_LOGO_EPS
 10
3.3569206388882
 20
5.421112008034884
 30
0.0
  0
VERTEX
  5
19E
  8
IMPORT_-_LOGO_EPS
 10
3.350739381297089
 20
5.406303533890299
 30
0.0
  0
VERTEX
  5
19F
  8
IMPORT_-_LOGO_EPS
 10
3.345116611897184
 20
5.391081883882351
 30
0.0
  0
VERTEX
  5
1A0
  8
IMPORT_-_LOGO_EPS
 10
3.340047379713219
 20
5.375438098470514
 30
0.0
  0
VERTEX
  5
1A1
  8
IMPORT_-_LOGO_EPS
 10
3.335526733769926
 20
5.359363218114268
 30
0.0
  0
VERTEX
  5
1A2
  8
IMPORT_-_LOGO_EPS
 10
3.33154972309204
 20
5.342848283273092
 30
0.0
  0
VERTEX
  5
1A3
  8
IMPORT_-_LOGO_EPS
 10
3.328111396704293
 20
5.325884334406463
 30
0.0
  0
VERTEX
  5
1A4
  8
IMPORT_-_LOGO_EPS
 10
3.326767780713492
 20
5.315461468392549
 30
0.0
  0
VERTEX
  5
1A5
  8
IMPORT_-_LOGO_EPS
 10
3.325804864576043
 20
5.301582916353134
 30
0.0
  0
VERTEX
  5
1A6
  8
IMPORT_-_LOGO_EPS
 10
3.325223157445572
 20
5.28540108322064
 30
0.0
  0
VERTEX
  5
1A7
  8
IMPORT_-_LOGO_EPS
 10
3.325023168475708
 20
5.268068373927487
 30
0.0
  0
VERTEX
  5
1A8
  8
IMPORT_-_LOGO_EPS
 10
3.32520540682008
 20
5.250737193406095
 30
0.0
  0
VERTEX
  5
1A9
  8
IMPORT_-_LOGO_EPS
 10
3.325770381632316
 20
5.234559946588883
 30
0.0
  0
VERTEX
  5
1AA
  8
IMPORT_-_LOGO_EPS
 10
3.326718602066046
 20
5.220689038408272
 30
0.0
  0
VERTEX
  5
1AB
  8
IMPORT_-_LOGO_EPS
 10
3.328050577274897
 20
5.210276873796683
 30
0.0
  0
VERTEX
  5
1AC
  8
IMPORT_-_LOGO_EPS
 10
3.331057487352533
 20
5.195429022458804
 30
0.0
  0
VERTEX
  5
1AD
  8
IMPORT_-_LOGO_EPS
 10
3.334738028800342
 20
5.179569711487416
 30
0.0
  0
VERTEX
  5
1AE
  8
IMPORT_-_LOGO_EPS
 10
3.338642571044581
 20
5.164525353940352
 30
0.0
  0
VERTEX
  5
1AF
  8
IMPORT_-_LOGO_EPS
 10
3.342321483511505
 20
5.152122362875438
 30
0.0
  0
VERTEX
  5
1B0
  8
IMPORT_-_LOGO_EPS
 10
3.345597053086859
 20
5.142084803793772
 30
0.0
  0
VERTEX
  5
1B1
  8
IMPORT_-_LOGO_EPS
 10
3.402124619413684
 20
5.103299524497679
 30
0.0
  0
VERTEX
  5
1B2
  8
IMPORT_-_LOGO_EPS
 10
3.467610050801933
 20
5.058295168534943
 30
0.0
  0
VERTEX
  5
1B3
  8
IMPORT_-_LOGO_EPS
 10
3.480642842490965
 20
5.049310945625439
 30
0.0
  0
VERTEX
  5
1B4
  8
IMPORT_-_LOGO_EPS
 10
3.573260357852934
 20
4.98584070419576
 30
0.0
  0
VERTEX
  5
1B5
  8
IMPORT_-_LOGO_EPS
 10
3.675320151773825
 20
4.915453227316071
 30
0.0
  0
VERTEX
  5
1B6
  8
IMPORT_-_LOGO_EPS
 10
3.706273032035275
 20
4.893960320421645
 30
0.0
  0
VERTEX
  5
1B7
  8
IMPORT_-_LOGO_EPS
 10
3.723378571127129
 20
4.894927088339228
 30
0.0
  0
VERTEX
  5
1B8
  8
IMPORT_-_LOGO_EPS
 10
3.739966594048402
 20
4.896325123702684
 30
0.0
  0
SEQEND
  5
1D9
  8
IMPORT_-_LOGO_EPS
  0
POLYLINE
  5
62
  8
IMPORT_-_LOGO_EPS
 66
     1
 10
0.0
 20
0.0
 30
0.0
 70
     1
  0
VERTEX
  5
1B9
  8
IMPORT_-_LOGO_EPS
 10
3.983771605313389
 20
5.105141425173487
 30
0.0
  0
VERTEX
  5
1BA
  8
IMPORT_-_LOGO_EPS
 10
3.992447734104215
 20
5.122872592422326
 30
0.0
  0
VERTEX
  5
1BB
  8
IMPORT_-_LOGO_EPS
 10
3.999610956802245
 20
5.138657204806361
 30
0.0
  0
VERTEX
  5
1BC
  8
IMPORT_-_LOGO_EPS
 10
4.005436939226015
 20
5.153062185349189
 30
0.0
  0
VERTEX
  5
1BD
  8
IMPORT_-_LOGO_EPS
 10
4.01010134719406
 20
5.166654457074403
 30
0.0
  0
VERTEX
  5
1BE
  8
IMPORT_-_LOGO_EPS
 10
4.013779846524916
 20
5.180000943005597
 30
0.0
  0
VERTEX
  5
1BF
  8
IMPORT_-_LOGO_EPS
 10
4.016648103037119
 20
5.193668566166368
 30
0.0
  0
VERTEX
  5
1C0
  8
IMPORT_-_LOGO_EPS
 10
4.018881782549204
 20
5.208224249580308
 30
0.0
  0
VERTEX
  5
1C1
  8
IMPORT_-_LOGO_EPS
 10
4.020656550879709
 20
5.224234916271011
 30
0.0
  0
VERTEX
  5
1C2
  8
IMPORT_-_LOGO_EPS
 10
4.025986727556254
 20
5.285149170946293
 30
0.0
  0
VERTEX
  5
1C3
  8
IMPORT_-_LOGO_EPS
 10
4.02714966402747
 20
5.302717071313722
 30
0.0
  0
VERTEX
  5
1C4
  8
IMPORT_-_LOGO_EPS
 10
4.027298843693995
 20
5.307523061439446
 30
0.0
  0
VERTEX
  5
1C5
  8
IMPORT_-_LOGO_EPS
 10
4.027138211704057
 20
5.309389210263484
 30
0.0
  0
VERTEX
  5
1C6
  8
IMPORT_-_LOGO_EPS
 10
4.023489518243768
 20
5.310200598625205
 30
0.0
  0
VERTEX
  5
1C7
  8
IMPORT_-_LOGO_EPS
 10
4.015947304118782
 20
5.310915960233891
 30
0.0
  0
VERTEX
  5
1C8
  8
IMPORT_-_LOGO_EPS
 10
4.00562105989813
 20
5.311578544001224
 30
0.0
  0
VERTEX
  5
1C9
  8
IMPORT_-_LOGO_EPS
 10
4.004593592698525
 20
5.297959300549939
 30
0.0
  0
VERTEX
  5
1CA
  8
IMPORT_-_LOGO_EPS
 10
4.003368536927615
 20
5.276138689621019
 30
0.0
  0
VERTEX
  5
1CB
  8
IMPORT_-_LOGO_EPS
 10
4.001895795273393
 20
5.242800287388885
 30
0.0
  0
VERTEX
  5
1CC
  8
IMPORT_-_LOGO_EPS
 10
4.000442650070196
 20
5.21178623139893
 30
0.0
  0
VERTEX
  5
1CD
  8
IMPORT_-_LOGO_EPS
 10
3.999282780464281
 20
5.195556417516145
 30
0.0
  0
VERTEX
  5
1CE
  8
IMPORT_-_LOGO_EPS
 10
3.996203785457824
 20
5.181136621235509
 30
0.0
  0
VERTEX
  5
1CF
  8
IMPORT_-_LOGO_EPS
 10
3.990689500538202
 20
5.158373792329831
 30
0.0
  0
VERTEX
  5
1D0
  8
IMPORT_-_LOGO_EPS
 10
3.984179438324659
 20
5.133023989522633
 30
0.0
  0
VERTEX
  5
1D1
  8
IMPORT_-_LOGO_EPS
 10
3.97811311143644
 20
5.110843271537439
 30
0.0
  0
VERTEX
  5
1D2
  8
IMPORT_-_LOGO_EPS
 10
3.969932881610628
 20
5.082334039717682
 30
0.0
  0
VERTEX
  5
1D3
  8
IMPORT_-_LOGO_EPS
 10
3.969489801787627
 20
5.080364051842439
 30
0.0
  0
VERTEX
  5
1D4
  8
IMPORT_-_LOGO_EPS
 10
3.969683330335757
 20
5.079797120662287
 30
0.0
  0
VERTEX
  5
1D5
  8
IMPORT_-_LOGO_EPS
 10
3.970505580253145
 20
5.080620419409286
 30
0.0
  0
VERTEX
  5
1D6
  8
IMPORT_-_LOGO_EPS
 10
3.971948664537918
 20
5.082821121315488
 30
0.0
  0
VERTEX
  5
1D7
  8
IMPORT_-_LOGO_EPS
 10
3.976665788202124
 20
5.091303427533737
 30
0.0
  0
SEQEND
  5
1DA
  8
IMPORT_-_LOGO_EPS
  0
ENDSEC
  0
EOF
