<?xml version="1.0" encoding="UTF-8"?>
<!-- Created by Vectric (http://www.vectric.com/) -->
<svg width="10.00000000in" height="10.00000000in" viewBox="0.00000000 0.00000000 10.00000000 10.00000000" id="svg2" version="1.1" xmlns="http://www.w3.org/2000/svg" xmlns:xlink="http://www.w3.org/1999/xlink" xmlns:inkscape="http://www.inkscape.org/namespaces/inkscape">
    <g inkscape:groupmode="layer" id="0ebb1fe5-6f1e-4165-8da5-c7860bf48908" inkscape:label="Layer 1" style="stroke:#000000;"/>
    <g inkscape:groupmode="layer" id="7898927f-01da-4a07-9d3b-c8e0ff0abdb3" inkscape:label="Import - Logo.eps" style="stroke:#000000;">
        <path style="fill:none;stroke-width:0.010000;stroke-linecap:round;stroke-linejoin:round;stroke-opacity:1;stroke:#000000;" d="M 3.666360,5.156831 C 3.588554,5.150960 3.507549,5.120888 3.445617,5.074883 C 3.424737,5.059372 3.418526,5.054028 3.398619,5.034435 C 3.319508,4.956554 3.274010,4.849676 3.272279,4.737651 C 3.271067,4.658768 3.293051,4.578661 3.334941,4.509357 C 3.410253,4.384746 3.550151,4.306278 3.697543,4.305983 C 3.807260,4.305753 3.915145,4.349349 3.993590,4.425594 C 4.068934,4.498836 4.113320,4.592272 4.122466,4.696923 C 4.133792,4.826539 4.082197,4.957944 3.985181,5.046560 C 3.899704,5.124637 3.781492,5.165528 3.666360,5.156831 "/>
        <path style="fill:none;stroke-width:0.010000;stroke-linecap:round;stroke-linejoin:round;stroke-opacity:1;stroke:#000000;" d="M 3.755841,5.101661 C 3.832029,5.089503 3.902223,5.054484 3.957367,5.001124 C 3.967346,4.991468 3.980014,4.978121 3.985529,4.971461 L 3.995540,4.959345 L 3.990644,4.956817 C 3.987955,4.955424 3.979681,4.951784 3.972266,4.948730 C 3.964850,4.945684 3.952547,4.940491 3.944936,4.937198 C 3.937316,4.933898 3.919405,4.926491 3.905125,4.920720 C 3.865382,4.904668 3.830221,4.884296 3.793430,4.856014 C 3.741036,4.815745 3.703473,4.776215 3.690178,4.747332 C 3.684628,4.735292 3.676593,4.702549 3.672996,4.677374 C 3.668474,4.645674 3.661703,4.572823 3.658918,4.525987 L 3.657817,4.507363 L 3.670637,4.522644 C 3.720366,4.581920 3.770342,4.616504 3.826826,4.630734 C 3.851196,4.636868 3.924166,4.648085 3.965300,4.652021 C 3.970671,4.652531 3.995140,4.655177 4.019664,4.657901 C 4.044192,4.660625 4.064633,4.662484 4.065083,4.662026 C 4.066473,4.660633 4.057691,4.627245 4.050480,4.606508 C 4.042717,4.584176 4.024771,4.547835 4.011475,4.527497 C 3.959487,4.448003 3.879314,4.391408 3.786344,4.368575 C 3.752372,4.360234 3.739950,4.358903 3.696498,4.358952 C 3.653666,4.359005 3.643705,4.360125 3.609342,4.368703 C 3.548598,4.383882 3.495153,4.411764 3.450539,4.451557 C 3.384704,4.510280 3.345021,4.582428 3.328111,4.674116 C 3.324021,4.696278 3.323987,4.767593 3.328051,4.789723 C 3.331411,4.808034 3.337767,4.833913 3.342321,4.847878 L 3.345597,4.857915 L 3.402125,4.896700 C 3.433212,4.918031 3.462681,4.938284 3.467610,4.941705 C 3.472532,4.945124 3.478403,4.949171 3.480643,4.950689 C 3.509382,4.970162 3.633991,5.055851 3.675320,5.084547 L 3.706273,5.106040 L 3.723379,5.105073 C 3.732780,5.104545 3.747391,5.103010 3.755841,5.101661 "/>
        <path style="fill:none;stroke-width:0.010000;stroke-linecap:round;stroke-linejoin:round;stroke-opacity:1;stroke:#000000;" d="M 3.983772,4.894859 C 4.009081,4.844476 4.016380,4.820904 4.020657,4.775765 C 4.025372,4.726001 4.027994,4.691475 4.027138,4.690611 C 4.026654,4.690127 4.021623,4.689440 4.015947,4.689084 L 4.005621,4.688421 L 4.004594,4.702041 C 4.004016,4.709532 4.002804,4.734351 4.001896,4.757200 C 4.000979,4.780051 3.999808,4.801305 3.999283,4.804444 C 3.997441,4.815550 3.985266,4.864253 3.978113,4.889157 C 3.974125,4.903048 3.970441,4.915876 3.969933,4.917666 C 3.967896,4.924801 3.972733,4.916834 3.983772,4.894859 "/>
    </g>
    <g inkscape:groupmode="layer" id="124137fa-bba0-4c30-a6f3-13663edde912" inkscape:label="Blue" style="stroke:#0000ff;"/>
</svg>
